<?xml version="1.0" encoding="UTF-8"?>
<!-- Generator: Adobe Illustrator 23.1.0, SVG Export Plug-In . SVG Version: 6.00 Build 0)  -->
<svg version="1.1" id="Capa_1" xmlns="http://www.w3.org/2000/svg" xmlns:xlink="http://www.w3.org/1999/xlink" x="0px" y="0px" viewBox="0 0 512 512" style="enable-background:new 0 0 512 512;" xml:space="preserve">
<style type="text/css">
	.st0{fill:#52B4D1;}
	.st1{fill:#E5E5E5;}
	.st2{fill:#262626;}
</style>
<path class="st0" d="M427.5,512h-343C37.8,512,0,474.2,0,427.5v-343C0,37.8,37.8,0,84.5,0h343C474.2,0,512,37.8,512,84.5v343  C512,474.2,474.2,512,427.5,512z"/>
<g>
	<g>
		<path class="st1" d="M436.7,239.3c0-83.6-73.3-151.7-163.3-151.7s-163.3,68-163.2,153.5c0.1,0.3,4.3,30.6-9.3,46.4    c-5.8,6.8-14.3,10.1-25.8,10.1c-6.4,0-11.7,5.3-11.7,11.7c0,32.4,24,54.8,72.3,67.9c-1.4,4.4-2.3,9-2.3,13.8    c0,25.7,20.9,46.7,46.7,46.7s46.7-20.9,46.7-46.7c0-0.4-0.1-0.7-0.1-1.2c14.7,0.7,30.1,1.2,46.8,1.2c0,25.7,20.9,46.7,46.7,46.7    s46.7-20.9,46.7-46.7c0-8.5-2.5-16.5-6.6-23.4C406,340.7,436.7,293.3,436.7,239.3z"/>
	</g>
</g>
<g>
	<g>
		<path class="st2" d="M436.7,239.3c0-83.6-73.3-151.7-163.3-151.7s-163.3,68-163.2,153.5c0.1,0.3,4.3,30.6-9.3,46.4    c-5.8,6.8-14.3,10.1-25.8,10.1c-6.4,0-11.7,5.3-11.7,11.7c0,32.4,24,54.8,72.3,67.9c-1.4,4.4-2.3,9-2.3,13.8    c0,25.7,20.9,46.7,46.7,46.7s46.7-20.9,46.7-46.7c0-0.4-0.1-0.7-0.1-1.2c14.7,0.7,30.1,1.2,46.8,1.2c0,25.7,20.9,46.7,46.7,46.7    s46.7-20.9,46.7-46.7c0-8.5-2.5-16.5-6.6-23.4C406,340.7,436.7,293.3,436.7,239.3z M342.8,350.5c-6.8-3.9-14.5-6.2-22.8-6.2    c-17.1,0-31.9,9.3-40,23c-2.3,0.1-4.4,0.3-6.7,0.3c-19.8,0-37.4-0.7-54.1-1.8c-8.3-13-22.8-21.6-39.2-21.6c-12,0-23,4.7-31.2,12.2    c-33.9-8-54.5-20.3-60.4-36.7c12.3-2.3,22.4-8,30.1-17.1c20.7-24.2,14.9-63.4,14.8-63.4c0-70.8,62.8-128.3,140-128.3    s140,57.5,140,128.3C413.3,286.9,384.9,328.4,342.8,350.5z"/>
	</g>
</g>
<g>
	<g>
		<path class="st2" d="M227.1,192.7h-0.2c-6.4,0-11.5,5.3-11.5,11.7c0,6.4,5.3,11.7,11.8,11.7s11.7-5.3,11.7-11.7    C238.8,197.9,233.6,192.7,227.1,192.7z"/>
	</g>
</g>
<g>
	<g>
		<path class="st2" d="M320.4,192.7h-0.2c-6.4,0-11.5,5.3-11.5,11.7c0,6.4,5.3,11.7,11.8,11.7c6.5,0,11.7-5.3,11.7-11.7    C332.2,197.9,326.9,192.7,320.4,192.7z"/>
	</g>
</g>
<g>
	<g>
		<path class="st2" d="M334.2,251.3c-6.3-1.4-12.5,2.6-13.9,8.8c-5,22.1-24.2,37.6-47,37.6c-22.7,0-42-15.5-47-37.6    c-1.5-6.3-7.7-10.2-13.9-8.8c-6.3,1.5-10.2,7.7-8.8,13.9c7.4,32.9,36.1,55.8,69.7,55.8c33.7,0,62.3-23,69.7-55.8    C344.5,258.9,340.5,252.7,334.2,251.3z"/>
	</g>
</g>
</svg>